<?xml version="1.0" standalone="no"?>
<!DOCTYPE svg PUBLIC "-//W3C//DTD SVG 20010904//EN"
 "http://www.w3.org/TR/2001/REC-SVG-20010904/DTD/svg10.dtd">
<svg version="1.0" xmlns="http://www.w3.org/2000/svg"
 width="295.000000pt" height="295.000000pt" viewBox="0 0 295.000000 295.000000"
 preserveAspectRatio="xMidYMid meet">
<metadata>
Created by potrace 1.14, written by Peter Selinger 2001-2017
</metadata>
<g transform="translate(0.000000,295.000000) scale(0.100000,-0.100000)"
fill="#000000" stroke="none">
<path d="M1786 2505 c-20 -20 -5 -55 33 -78 52 -30 129 -118 166 -188 20 -38
34 -69 31 -69 -3 0 2 -16 10 -35 8 -19 12 -35 9 -35 -2 0 0 -11 5 -25 6 -15 6
-26 0 -30 -6 -4 -7 -14 -2 -23 12 -26 3 -102 -20 -172 -7 -19 -13 -37 -13 -40
0 -3 -9 -20 -18 -37 -10 -18 -13 -33 -8 -33 6 0 8 -7 5 -15 -8 -20 44 -45 55
-26 5 7 12 11 17 9 5 -1 24 20 41 47 18 28 38 56 43 63 6 6 9 12 6 12 -2 0 4
21 14 48 9 26 16 57 15 70 -1 12 1 22 4 22 6 0 6 42 0 128 -2 23 -7 42 -12 42
-4 0 -5 5 -2 10 9 14 -27 107 -63 164 -29 46 -113 136 -126 136 -4 0 -23 12
-42 26 -19 15 -34 23 -34 20 0 -4 -13 0 -30 9 -37 19 -64 19 -84 0z"/>
<path d="M1561 2443 c-12 -26 4 -73 25 -73 14 0 144 -120 144 -133 0 -5 9 -21
20 -37 11 -15 17 -30 13 -34 -3 -3 -1 -6 6 -6 7 0 10 -4 7 -9 -4 -5 -2 -11 3
-13 6 -1 13 -18 16 -37 3 -19 9 -39 12 -44 3 -6 7 -46 8 -90 3 -85 -11 -162
-38 -217 -29 -57 -30 -87 -5 -104 12 -9 18 -19 14 -23 -4 -4 -10 -3 -14 3 -19
30 -80 43 -137 30 -11 -2 -23 -5 -26 -5 -14 -2 -47 -38 -61 -66 -12 -23 -15
-66 -14 -195 2 -185 10 -210 73 -236 92 -39 178 -1 204 90 6 22 14 35 17 30 8
-11 162 -16 162 -6 0 4 10 8 23 8 52 4 73 8 86 18 7 5 19 11 27 12 7 1 21 9
30 18 8 9 21 16 28 16 7 0 29 15 49 34 20 18 37 31 37 28 0 -2 14 13 30 34 17
22 37 47 45 57 8 9 15 22 15 27 0 6 5 10 12 10 6 0 9 3 5 6 -3 3 2 20 12 37 9
18 16 39 16 47 0 8 4 18 9 22 9 6 13 187 5 236 -3 20 -11 26 -31 23 -5 0 -8 3
-8 8 0 5 -9 7 -20 4 -12 -3 -18 -8 -15 -11 2 -3 1 -10 -5 -16 -5 -7 -10 -31
-11 -54 -2 -23 -7 -42 -12 -42 -4 0 -6 -4 -3 -8 3 -5 0 -26 -6 -48 -6 -21 -11
-42 -10 -46 1 -5 -3 -8 -8 -8 -6 0 -10 -9 -10 -20 0 -11 -4 -20 -8 -20 -5 0
-14 -16 -22 -35 -7 -19 -17 -32 -22 -29 -4 3 -8 0 -8 -6 0 -28 -161 -153 -197
-153 -7 0 -13 -4 -13 -9 0 -4 -8 -8 -18 -8 -10 0 -22 -3 -26 -7 -7 -7 -48 -14
-106 -16 -38 -2 -70 -23 -70 -46 0 -8 -8 -23 -17 -33 -9 -10 -18 -29 -20 -41
-6 -41 -61 -70 -103 -55 -51 17 -55 30 -56 187 -2 186 9 211 87 211 30 0 84
-44 74 -60 -3 -5 -2 -15 1 -24 7 -17 53 -22 55 -6 1 6 2 16 3 23 2 6 -3 27
-10 45 -13 33 -9 66 7 56 11 -7 69 52 69 71 0 7 4 15 9 17 5 2 11 10 13 18 2
8 6 18 11 21 4 3 9 16 12 29 2 12 9 37 14 54 9 29 23 109 23 131 0 10 -11 86
-16 115 -8 41 -57 150 -78 174 -10 11 -18 23 -18 28 0 25 -160 148 -194 148
-8 0 -17 4 -20 9 -3 5 -19 11 -35 13 -23 3 -32 0 -40 -19z"/>
<path d="M1037 2403 c-3 -2 -79 -15 -94 -16 -7 0 -13 -4 -13 -9 0 -4 -9 -8
-20 -8 -11 0 -20 -4 -20 -10 0 -5 -8 -10 -19 -10 -10 0 -24 -7 -31 -15 -7 -8
-18 -15 -24 -15 -14 -1 -61 -49 -69 -72 -3 -9 2 -23 13 -33 16 -15 24 -15 57
-4 21 6 48 19 61 27 12 8 22 11 22 8 0 -4 10 -1 22 5 53 29 282 12 326 -23 6
-6 12 -8 12 -4 0 3 18 -5 40 -19 22 -14 43 -25 46 -25 10 0 114 -111 114 -121
0 -14 54 -59 72 -59 23 0 48 27 48 51 0 34 -50 125 -98 180 -43 48 -152 129
-173 129 -6 0 -24 7 -41 16 -16 8 -51 18 -77 21 -45 5 -151 10 -154 6z"/>
<path d="M880 2156 c-113 -43 -199 -105 -194 -139 5 -37 22 -45 64 -35 22 6
40 14 40 18 0 23 241 59 275 41 5 -2 23 -6 39 -8 87 -10 231 -103 292 -190 11
-15 29 -37 42 -50 22 -24 23 -24 52 -6 38 22 38 42 1 118 -44 93 -148 192
-241 229 -85 34 -92 36 -100 31 -5 -3 -11 -1 -14 3 -3 5 -49 9 -103 9 -75 0
-111 -5 -153 -21z"/>
<path d="M840 1827 c0 -4 -4 -5 -10 -2 -5 3 -16 3 -22 -2 -7 -4 -20 -8 -28 -9
-35 -2 -139 -62 -182 -106 -16 -15 -28 -25 -28 -21 0 4 -18 -18 -41 -48 -40
-53 -75 -117 -71 -131 1 -5 -3 -8 -9 -8 -6 0 -9 -6 -6 -12 2 -7 0 -22 -6 -33
-14 -25 -17 -191 -5 -227 6 -15 18 -30 28 -33 25 -8 60 15 61 40 2 61 8 106
19 141 17 52 56 126 80 152 11 12 20 27 20 33 0 7 3 9 7 6 3 -4 12 2 20 13 33
47 204 140 246 134 9 -1 17 1 17 6 0 5 17 7 38 5 54 -4 92 18 92 55 0 20 -7
33 -22 42 -26 14 -198 19 -198 5z"/>
<path d="M2510 1740 c-13 -11 -18 -20 -11 -20 9 0 9 -5 1 -20 -6 -12 -8 -30
-5 -40 4 -11 2 -20 -3 -20 -5 0 -8 -10 -7 -22 1 -13 -4 -35 -11 -49 -7 -15
-10 -29 -7 -33 4 -3 1 -6 -5 -6 -7 0 -11 -4 -9 -8 10 -33 -152 -232 -190 -232
-7 0 -13 -4 -13 -9 0 -5 -10 -13 -22 -16 -13 -4 -38 -13 -56 -21 -18 -9 -42
-16 -52 -17 -11 -1 -20 -4 -20 -8 0 -3 -16 -5 -35 -4 -19 1 -35 -3 -35 -7 0
-5 -9 -7 -19 -3 -11 3 -22 1 -26 -5 -3 -6 -11 -8 -16 -5 -5 4 -10 3 -10 -2 -9
-63 -8 -64 28 -79 48 -21 183 -15 258 11 6 1 20 6 33 10 12 4 22 12 22 17 0 5
5 6 10 3 6 -3 10 -1 10 5 0 6 4 9 9 6 5 -3 20 5 35 19 14 13 26 21 26 17 0 -4
4 -2 8 3 4 6 20 21 36 33 16 12 26 22 23 22 -3 0 10 16 29 36 19 20 34 43 34
50 0 8 5 14 11 14 5 0 7 5 4 10 -3 6 -1 10 4 10 6 0 11 4 11 9 0 5 5 22 12 38
6 15 12 30 12 33 1 3 5 11 9 18 5 7 3 12 -5 12 -11 0 -11 2 0 9 9 5 15 35 17
85 2 46 0 74 -6 70 -13 -7 -7 19 6 28 6 5 5 8 -2 8 -7 0 -10 7 -7 15 4 8 1 15
-6 15 -6 0 -8 6 -4 13 4 6 3 9 -1 4 -5 -4 -16 0 -25 8 -15 14 -19 13 -40 -5z"/>
<path d="M990 1662 c-36 -8 -68 -20 -72 -26 -4 -6 -8 -8 -8 -3 0 26 -210 -122
-210 -149 0 -3 -9 -15 -20 -26 -25 -27 -65 -109 -62 -125 2 -7 -2 -13 -7 -13
-5 0 -10 -8 -9 -17 0 -10 -3 -31 -7 -48 -8 -30 -9 -144 -2 -178 6 -31 35 -57
54 -50 26 9 37 32 39 82 2 54 53 213 65 205 5 -3 9 1 9 8 0 8 13 28 29 46 17
17 28 32 26 32 -2 0 7 11 21 25 14 14 29 25 34 25 6 0 10 5 10 10 0 6 7 10 15
10 8 0 15 5 15 10 0 6 7 10 15 10 8 0 15 3 15 8 0 8 74 40 109 47 12 2 30 6
39 9 9 3 33 7 53 10 45 7 46 5 43 -155 -1 -99 -4 -119 -20 -137 -10 -11 -24
-27 -29 -34 -12 -15 -45 -84 -47 -95 0 -5 -4 -19 -9 -32 -20 -52 -32 -198 -17
-208 5 -2 6 -8 3 -13 -8 -13 16 -103 29 -112 6 -4 7 -8 3 -8 -4 0 -2 -10 5
-22 7 -13 11 -27 10 -31 -1 -4 5 -10 13 -13 8 -4 15 -12 15 -20 0 -18 99 -124
116 -124 8 0 14 -7 14 -17 0 -9 3 -13 6 -10 4 4 19 -2 33 -12 31 -22 100 -46
121 -42 26 5 39 33 27 58 -6 13 -15 23 -21 23 -16 0 -147 125 -139 133 3 4 1
7 -5 7 -10 0 -62 101 -75 145 -23 81 -24 179 -3 270 2 11 5 23 5 26 1 3 35 6
76 6 81 1 127 20 154 65 17 26 24 300 9 355 -14 54 -58 77 -163 84 -49 3 -101
9 -115 13 -45 13 -124 12 -190 -2z m360 -72 c3 -1 8 -2 13 -1 4 0 7 -4 7 -10
0 -5 4 -8 8 -5 18 11 30 -66 28 -191 -1 -112 -4 -135 -20 -152 -10 -11 -21
-20 -25 -19 -3 0 -8 0 -11 -1 -12 -5 -90 -5 -91 -1 -1 3 -2 24 -3 47 0 24 -3
43 -6 43 -3 0 -5 66 -5 148 l0 147 50 -1 c27 -1 52 -3 55 -4z"/>
<path d="M956 1238 c-9 -5 -16 -15 -16 -22 0 -8 -7 -17 -16 -20 -9 -4 -14 -9
-11 -12 3 -3 -3 -14 -14 -25 -11 -11 -22 -33 -26 -49 -3 -17 -10 -30 -15 -30
-6 0 -8 -7 -4 -15 3 -8 2 -15 -3 -15 -10 0 -10 -3 -15 -130 -4 -87 -1 -115 15
-160 11 -30 21 -59 22 -65 6 -23 52 -95 61 -95 5 0 7 -3 3 -6 -10 -10 98 -108
152 -137 28 -15 51 -24 51 -20 0 5 4 3 8 -3 9 -15 41 -20 69 -11 15 6 20 15
18 33 -2 23 -35 64 -51 64 -9 0 -88 71 -93 84 -2 6 -12 18 -21 26 -23 21 -66
115 -83 183 -8 31 -13 57 -10 57 3 0 0 6 -6 14 -9 11 -9 15 1 20 10 5 10 7 0
12 -6 3 -9 10 -6 16 6 9 13 61 16 108 0 8 5 21 11 28 5 6 7 12 3 12 -3 0 5 22
19 48 27 52 30 97 5 109 -23 10 -46 11 -64 1z"/>
<path d="M1518 1152 c-10 -2 -18 -7 -19 -10 0 -4 -2 -16 -4 -26 -9 -46 125
-252 148 -229 4 3 7 -1 7 -11 0 -9 4 -15 9 -12 5 4 11 3 13 -2 6 -15 61 -52
69 -46 5 3 9 1 9 -4 0 -10 63 -32 98 -35 12 -1 22 -5 22 -10 0 -4 4 -6 9 -2 5
3 12 2 15 -3 7 -11 198 -4 214 8 1 2 5 3 10 4 4 1 13 5 20 9 6 5 17 5 22 2 6
-3 10 -2 10 2 0 5 16 15 35 22 19 7 35 17 35 22 0 5 6 9 13 9 6 0 28 14 47 30
19 16 31 30 26 30 -5 0 -4 6 2 13 13 15 -5 41 -32 45 -17 3 -93 -24 -106 -38
-5 -5 -14 -8 -60 -17 -53 -11 -230 -5 -230 8 0 3 -6 6 -12 7 -20 1 -40 8 -73
22 -16 7 -33 14 -37 14 -3 1 -18 11 -32 23 -14 13 -26 20 -26 17 0 -2 -25 20
-55 51 -30 30 -55 58 -55 61 0 22 -62 53 -92 46z"/>
<path d="M1457 933 c-9 -2 -15 -8 -12 -13 3 -5 1 -11 -4 -15 -7 -4 -7 -15 0
-33 6 -15 10 -29 10 -32 -1 -13 24 -70 31 -70 4 0 8 -4 8 -10 0 -20 114 -140
134 -140 7 0 19 -7 26 -15 7 -9 15 -13 18 -11 3 3 17 -3 32 -14 16 -11 35 -20
44 -20 9 0 16 -4 16 -8 0 -9 1 -9 143 -16 59 -3 107 -2 107 2 0 4 17 8 37 8
21 1 39 7 41 13 2 6 8 11 13 11 6 0 7 -6 4 -12 -4 -7 0 -5 8 4 8 10 17 15 20
11 4 -3 7 -1 7 5 0 7 6 12 13 12 8 0 22 9 32 20 10 11 22 17 26 14 5 -3 9 -1
9 5 0 5 9 13 20 16 11 4 18 11 15 16 -4 5 0 12 9 15 15 6 11 29 -8 50 -12 13
-85 -5 -111 -26 -8 -7 -15 -9 -15 -5 0 4 -6 2 -14 -4 -8 -6 -18 -11 -22 -10
-5 1 -11 0 -14 -1 -6 -2 -56 -8 -112 -12 -21 -2 -38 0 -38 5 0 4 -9 3 -20 -3
-14 -8 -20 -8 -20 0 0 6 -10 10 -22 9 -13 -2 -29 1 -37 5 -8 5 -24 10 -35 11
-37 4 -136 68 -195 125 -14 13 -29 24 -33 22 -5 -1 -8 5 -8 14 0 8 -6 21 -12
28 -7 8 -20 23 -28 35 -14 21 -27 23 -63 14z"/>
</g>
</svg>
